<svg width="48" height="48" viewBox="0 0 48 48" fill="none" xmlns="http://www.w3.org/2000/svg">

<g id="SoulMatcher desktop">
<g id="Page Content">
<g id="AI Matching Flow">
<g id="Stones Row">
<g id="flow-row-bottom">
<g id="card-6">
<path d="M-24 -76C-24 -82.6274 -18.6274 -88 -12 -88H248C254.627 -88 260 -82.6274 260 -76V60C260 66.6274 254.627 72 248 72H-12C-18.6274 72 -24 66.6274 -24 60V-76Z" fill="none"/>
<g id="Eye">
<path id="Vector" d="M45.6863 23.6962C45.6225 23.5537 44.0888 20.1544 40.6556 16.7213C37.4756 13.5413 32.0063 9.75 24 9.75C15.9938 9.75 10.5244 13.5413 7.34438 16.7213C3.91125 20.1544 2.3775 23.5537 2.31375 23.6962C2.272 23.7924 2.25046 23.8961 2.25046 24.0009C2.25046 24.1058 2.272 24.2095 2.31375 24.3056C2.3775 24.45 3.91125 27.8475 7.34438 31.2806C10.5319 34.4681 15.9956 38.25 24 38.25C32.0044 38.25 37.4756 34.4606 40.6556 31.2806C44.0888 27.8475 45.6225 24.45 45.6863 24.3056C45.728 24.2095 45.7495 24.1058 45.7495 24.0009C45.7495 23.8961 45.728 23.7924 45.6863 23.6962ZM39.555 30.2588C35.2294 34.5713 29.9925 36.75 23.9925 36.75C17.9925 36.75 12.7631 34.5656 8.43 30.2588C6.5863 28.42 5.03574 26.3092 3.8325 24C5.03798 21.6903 6.59109 19.5794 8.4375 17.7413C12.7706 13.4344 18 11.25 24 11.25C30 11.25 35.2294 13.4344 39.5625 17.7413C41.4087 19.5796 42.9618 21.6904 44.1675 24C42.962 26.3097 41.4089 28.4206 39.5625 30.2588H39.555ZM24 15.75C22.3683 15.75 20.7733 16.2339 19.4165 17.1404C18.0598 18.0469 17.0024 19.3354 16.378 20.8429C15.7536 22.3504 15.5902 24.0092 15.9085 25.6095C16.2269 27.2098 17.0126 28.6798 18.1664 29.8336C19.3202 30.9874 20.7902 31.7732 22.3905 32.0915C23.9909 32.4098 25.6497 32.2464 27.1571 31.622C28.6646 30.9976 29.9531 29.9402 30.8596 28.5835C31.7661 27.2267 32.25 25.6317 32.25 24C32.2475 21.8127 31.3775 19.7157 29.8309 18.1691C28.2843 16.6225 26.1873 15.7525 24 15.75ZM24 30.75C22.665 30.75 21.3599 30.3541 20.2499 29.6124C19.1399 28.8707 18.2747 27.8165 17.7638 26.5831C17.2529 25.3497 17.1193 23.9925 17.3797 22.6831C17.6402 21.3738 18.283 20.171 19.227 19.227C20.171 18.283 21.3738 17.6401 22.6831 17.3797C23.9925 17.1192 25.3497 17.2529 26.5831 17.7638C27.8165 18.2747 28.8707 19.1399 29.6124 20.2499C30.3541 21.3599 30.75 22.665 30.75 24C30.75 25.7902 30.0388 27.5071 28.773 28.773C27.5071 30.0388 25.7902 30.75 24 30.75Z" fill="#C6A15A"/>
</g>
</g>
</g>
</g>
</g>
</g>
</g>
</svg>
